<?xml version="1.0" encoding="iso-8859-1"?>
<!-- Generator: Adobe Illustrator 19.0.0, SVG Export Plug-In . SVG Version: 6.00 Build 0)  -->
<svg version="1.1" id="Capa_1" xmlns="http://www.w3.org/2000/svg" xmlns:xlink="http://www.w3.org/1999/xlink" x="0px" y="0px"
	 viewBox="0 0 512 512" style="enable-background:new 0 0 512 512;" xml:space="preserve">
<g>
	<g>
		<path d="M458.667,0H323.349c-25.643,0-49.749,9.984-67.883,28.117L18.197,265.387C6.464,277.12,0,292.715,0,309.376
			c0,16.576,6.464,32.171,18.197,43.904L158.72,493.803C170.453,505.536,186.048,512,202.709,512
			c16.576,0,32.171-6.464,43.904-18.197l237.269-237.269C502.016,238.4,512,214.293,512,188.651V53.333
			C512,23.936,488.064,0,458.667,0z M490.667,188.651c0,19.947-7.765,38.699-21.845,52.779L231.531,478.72
			c-15.339,15.339-42.24,15.445-57.707,0L33.28,338.176c-7.701-7.68-11.947-17.92-11.947-28.885c0-10.88,4.245-21.12,11.947-28.821
			L270.549,43.2c14.123-14.101,32.853-21.867,52.8-21.867h135.317c17.643,0,32,14.357,32,32V188.651z"/>
	</g>
</g>
<g>
	<g>
		<path d="M394.667,64c-29.397,0-53.333,23.936-53.333,53.333c0,29.397,23.936,53.333,53.333,53.333S448,146.731,448,117.333
			C448,87.936,424.064,64,394.667,64z M394.667,149.333c-17.643,0-32-14.357-32-32c0-17.643,14.357-32,32-32s32,14.357,32,32
			C426.667,134.976,412.309,149.333,394.667,149.333z"/>
	</g>
</g>
<g>
</g>
<g>
</g>
<g>
</g>
<g>
</g>
<g>
</g>
<g>
</g>
<g>
</g>
<g>
</g>
<g>
</g>
<g>
</g>
<g>
</g>
<g>
</g>
<g>
</g>
<g>
</g>
<g>
</g>
</svg>
