<?xml version="1.0" encoding="iso-8859-1"?>
<!-- Generator: Adobe Illustrator 18.1.1, SVG Export Plug-In . SVG Version: 6.00 Build 0)  -->
<svg version="1.1" id="Capa_1" xmlns="http://www.w3.org/2000/svg" xmlns:xlink="http://www.w3.org/1999/xlink" x="0px" y="0px"
	 viewBox="0 0 612 612" style="enable-background:new 0 0 612 612;" xml:space="preserve">
<g>
	<g>
		<g>
			<path d="M478.899,209.842l70.89-126.582c3.039-5.428,2.973-12.057-0.169-17.424c-3.145-5.366-8.899-8.664-15.119-8.664H166.881
				v-39.65C166.881,7.844,159.037,0,149.358,0H77.5c-9.678,0-17.523,7.844-17.523,17.523v576.954
				c0,9.677,7.844,17.523,17.523,17.523h71.858c9.678,0,17.523-7.846,17.523-17.523v-231.97H534.5
				c6.221,0,11.972-3.297,15.119-8.664c3.142-5.366,3.208-11.996,0.169-17.424L478.899,209.842z M131.835,576.954H95.023V92.22
				h36.813V576.954z M131.835,57.174H95.023V35.046h36.813V57.174z M166.881,327.461V92.22h337.721l-61.076,109.059
				c-2.98,5.32-2.979,11.806,0,17.124l61.076,109.058H166.881z"/>
		</g>
	</g>
</g>
<g>
</g>
<g>
</g>
<g>
</g>
<g>
</g>
<g>
</g>
<g>
</g>
<g>
</g>
<g>
</g>
<g>
</g>
<g>
</g>
<g>
</g>
<g>
</g>
<g>
</g>
<g>
</g>
<g>
</g>
</svg>
